<svg xmlns="http://www.w3.org/2000/svg" viewBox="0 0 60 30" role="img" aria-label="Flag of the United Kingdom">
  <!-- Modern Union Jack - simplified but accurate proportions for crisp display -->
  <rect width="60" height="30" fill="#012169"/>

  <!-- Diagonal white fimbriation -->
  <path d="M0 0 L10 0 L60 20 L60 30 L50 30 L0 10 Z" fill="#fff" />
  <path d="M60 0 L50 0 L0 20 L0 30 L10 30 L60 10 Z" fill="#fff" />

  <!-- Diagonal red saltires -->
  <path d="M0 0 L12 0 L60 22 L60 26 L48 26 L0 4 Z" fill="#C8102E" />
  <path d="M60 0 L48 0 L0 22 L0 26 L12 26 L60 4 Z" fill="#C8102E" />

  <!-- Central white cross -->
  <rect x="24" y="0" width="12" height="30" fill="#fff" />
  <rect x="0" y="12" width="60" height="6" fill="#fff" />

  <!-- Central red cross -->
  <rect x="26.5" y="0" width="7" height="30" fill="#C8102E" />
  <rect x="0" y="13.5" width="60" height="3" fill="#C8102E" />
</svg>
