<svg xmlns="http://www.w3.org/2000/svg" viewBox="0 0 200 200" width="200" height="200">
  <!-- Shield background -->
  <path d="M100 20 L160 50 L160 100 Q160 150 100 180 Q40 150 40 100 L40 50 Z" fill="#c41e3a" stroke="#e8a723" stroke-width="2"/>
  
  <!-- Inner shield -->
  <path d="M100 30 L155 55 L155 100 Q155 145 100 170 Q45 145 45 100 L45 55 Z" fill="#8b1428" opacity="0.7"/>
  
  <!-- People/family icon -->
  <g fill="#ffffff">
    <!-- Center person -->
    <circle cx="100" cy="60" r="10"/>
    <path d="M95 75 L105 75 L105 95 L95 95 Z"/>
    
    <!-- Left person -->
    <circle cx="75" cy="65" r="8"/>
    <path d="M71 78 L79 78 L79 95 L71 95 Z"/>
    
    <!-- Right person -->
    <circle cx="125" cy="65" r="8"/>
    <path d="M121 78 L129 78 L129 95 L121 95 Z"/>
    
    <!-- Hands raised -->
    <path d="M70 85 L65 75 M130 85 L135 75" stroke="#e8a723" stroke-width="2" stroke-linecap="round"/>
  </g>
  
  <!-- Gold accent lines -->
  <line x1="100" y1="110" x2="100" y2="160" stroke="#e8a723" stroke-width="2"/>
</svg>